<?xml version="1.0" encoding="utf-8"?>
<!-- Generator: Adobe Illustrator 18.1.1, SVG Export Plug-In . SVG Version: 6.00 Build 0)  -->
<svg version="1.1" id="Layer_1" xmlns="http://www.w3.org/2000/svg" xmlns:xlink="http://www.w3.org/1999/xlink" x="0px" y="0px"
	 viewBox="0 0 307 68" enable-background="new 0 0 307 68" xml:space="preserve">
<g>
	<g>
		<path fill="#FFFFFF" d="M1.4,26v15.2c0,13.5,12,24.4,26.8,24.4c14.8,0,26.8-10.9,26.8-24.4V26c0-13.5-12-24.4-26.8-24.4
			C13.4,1.6,1.4,12.5,1.4,26 M8.5,41.2V26c0-9.5,8.8-17.3,19.6-17.3C39,8.7,47.8,16.4,47.8,26v15.2c0,9.5-8.8,17.3-19.6,17.3
			C17.4,58.5,8.5,50.7,8.5,41.2"/>
	</g>
	<g>
		<path fill="#FFFFFF" d="M32.2,32.4v2.3c0,2,1.8,3.6,4,3.6c2.2,0,4-1.6,4-3.6v-2.3c0-2-1.8-3.6-4-3.6C34,28.8,32.2,30.4,32.2,32.4"
			/>
	</g>
	<g>
		<path fill="#FFFFFF" d="M16.3,32.4v2.3c0,2,1.8,3.6,4,3.6c2.2,0,4-1.6,4-3.6v-2.3c0-2-1.8-3.6-4-3.6C18,28.8,16.3,30.4,16.3,32.4"
			/>
	</g>
	<g>
		<path fill="#FFFFFF" d="M80.9,20.1c-3,0-4.1,1-4.1,4.5v5.7H92v5.9H76.8v17.1h-7.2V24.6c0-8.9,5.3-10.7,12.1-10.7
			c6.2,0,8.3,0.5,9.9,0.7c0.8,0.1,1,0.4,1,1.1v4.4H80.9z"/>
	</g>
	<g>
		<path fill="#FFFFFF" d="M121.9,53.6c-8.2,0-12.5-5.5-12.5-13v-4.2c0-7.5,4.3-13,12.5-13c8.2,0,12.5,5.5,12.5,13v4.2
			C134.4,48,130.1,53.6,121.9,53.6 M127.5,36.3c0-4.3-1.9-7.1-5.6-7.1c-3.7,0-5.6,2.8-5.6,7.1v4.2c0,4.3,1.9,7.1,5.6,7.1
			c3.7,0,5.6-2.8,5.6-7.1V36.3z"/>
	</g>
	<g>
		<path fill="#FFFFFF" d="M183.1,52.2c-3.2,0.8-7.2,1.4-10.5,1.4c-8.4,0-12.5-5-12.5-13.1v-4c0-8.2,4.1-13.1,12.5-13.1
			c1.3,0,3.1,0.1,5,0.4V13.3h6.9v37.5C184.5,51.6,184.3,51.9,183.1,52.2 M177.6,29.3c-1.5-0.2-3.8-0.4-5-0.4c-4.5,0-5.6,3.2-5.6,7.5
			v4c0,4.3,1.1,7.5,5.6,7.5c1.9,0,4-0.2,5-0.4V29.3z"/>
	</g>
	<g>
		<path fill="#FFFFFF" d="M214.2,53.2h-6.4c-0.6,0-1.2-0.6-1.5-1l-8.2-11.9v12.9c0,0,0,0.1-0.1,0.1h-6.9V13.3h6.9v22.9l8.9-11.9
			c0.4-0.5,0.9-0.6,1.2-0.6h5.9c0.5,0,0.8,0.2,0.8,0.6c0,0.2-0.1,0.3-0.2,0.5l-10.5,12.9l10.6,14.4c0.1,0.2,0.2,0.3,0.2,0.4
			C214.9,52.9,214.6,53.2,214.2,53.2"/>
	</g>
	<g>
		<path fill="#FFFFFF" d="M262.8,53.2h-6.5v0v-1.9c-2.4,1.5-4.9,2.3-7.4,2.3c-4.3,0-9.1-1.7-9.1-8.7v-0.2c0-6,3.7-9.1,12.8-9.1h3.3
			v-2.3c0-3.4-1.5-4.2-4.6-4.2c-3.3,0-6.8,0.2-8.5,0.4h-0.3c-0.5,0-0.9-0.2-0.9-0.9v-3.3c0-0.6,0.3-0.9,1-1.1
			c2.1-0.4,5.1-0.8,8.7-0.8c7.4,0,11.5,3.3,11.5,10V53.2z M255.9,40.2h-3.3c-4.8,0-5.8,1.5-5.8,4.4v0.2c0,2.6,1.2,3.2,3.8,3.2
			c1.9,0,3.8-0.6,5.3-1.5V40.2z"/>
	</g>
	<g>
		<path fill="#FFFFFF" d="M281.2,18h-2.4c-2.5,0-3.1,0.6-3.1,3.1v2.6h6.1v5.2h-6.1v24.3l0,0h-6.9c0,0,0,0,0-0.1V28.8v-5.2v-2.6
			c0-6.7,3.6-8.4,9-8.4c1.3,0,2.1,0.2,3.1,0.4c0.4,0.1,0.9,0.4,0.9,0.8v3.1C282,17.7,281.5,18,281.2,18"/>
	</g>
	<g>
		<path fill="#FFFFFF" d="M138.9,33.3c0-6.7,4.1-10,11.5-10c3.6,0,5.4,0.5,6.8,0.8c0.7,0.2,1,0.5,1,1.1v3.1c0,0.7-0.3,1-0.9,1.1
			c-0.2,0-0.4,0-0.7,0c-0.8-0.1-2.8-0.3-6.2-0.3c-3.1,0-4.6,0.8-4.6,4.2v19.9c0,0,0,0.1,0,0.1h-6.9V33.3"/>
	</g>
	<g>
		<path fill="#FFFFFF" d="M218.5,33.3c0-6.7,4.1-10,11.5-10c3.6,0,5.4,0.5,6.7,0.8c0.7,0.2,1,0.5,1,1.1v3.1c0,0.7-0.3,1-0.9,1.1
			c-0.2,0-0.4,0-0.7,0c-0.8-0.1-2.8-0.3-6.2-0.3c-3.1,0-4.6,0.8-4.6,4.2v19.9c0,0,0,0.1-0.1,0.1h-6.9V33.3"/>
	</g>
	<g>
		<path fill="#FFFFFF" d="M291,23.7v-4.3c0-0.6,0.5-0.9,1-1l4.9-0.8h0.2c0.5,0,0.8,0.3,0.8,0.8v5.4h6v3.4c0,0.6-0.5,0.9-1,1
			l-4.9,0.7v16.4c0,2.6,0.2,2.9,2,2.9h2.8c0.7,0,1.1,0.3,1.1,0.8v3.3c0,0.5-0.3,0.8-1,0.9c-1.3,0.2-2.4,0.4-3.6,0.4
			c-5.9,0-8.3-1.3-8.3-8.3V28.8h-5.8v-5.2H291z"/>
	</g>
	<g>
		<path fill="#FFFFFF" d="M104.7,14.8h-7.2v5.5h7.1c0,0,0.1,0,0.1,0V14.8z M104.5,23.7h-6.9v30.8c0,3.4-1.5,4.2-4.6,4.2
			c-3.3,0-5.3-0.2-6.2-0.3c-0.3,0-0.5,0-0.7,0c-0.6,0.1-0.9,0.3-0.9,1.1v3.1c0,0.6,0.3,0.9,1,1.1c1.3,0.3,3.1,0.8,6.7,0.8
			c7.4,0,11.5-3.3,11.5-10V23.7z"/>
	</g>
</g>
</svg>
