
<svg xmlns="http://www.w3.org/2000/svg" viewBox="0 0 81.13 97.04"><defs><style>.cls-1{isolation:isolate;}.cls-2{fill:#fff;}.cls-3{fill-rule:evenodd;opacity:0.3;mix-blend-mode:multiply;}</style></defs><title>Asset 1</title><g class="cls-1"><g id="Layer_2" data-name="Layer 2"><g id="Layer_2-2" data-name="Layer 2"><path class="cls-2" d="M0 37v23c0 20.4 18.2 37 40.57 37s40.56-16.55 40.56-37V37c0-20.39-18.2-37-40.57-37S0 16.59 0 37zm10.78 23V37c0-14.45 13.36-26.2 29.79-26.2S70.35 22.53 70.35 37v23c0 14.5-13.35 26.26-29.78 26.26S10.78 74.5 10.78 60z"/><path class="cls-2" d="M46.63 46.81v3.42a6 6 0 0 0 12 0v-3.42a6 6 0 0 0-12 0zM22.47 46.81v3.42a5.78 5.78 0 0 0 6 5.49 5.78 5.78 0 0 0 6-5.49v-3.42a5.77 5.77 0 0 0-6-5.48 5.77 5.77 0 0 0-6 5.48z"/><path class="cls-3" d="M40.57 73.07c-8.67 0-14.35-4.66-15.7-9.61a62.52 62.52 0 0 0 31.39 0c-1.34 5-7 9.61-15.7 9.61z"/></g></g></g></svg>